<svg xmlns="http://www.w3.org/2000/svg" xmlns:xlink="http://www.w3.org/1999/xlink" version="1.1" x="0px" y="0px" viewBox="0 0 100 125" enable-background="new 0 0 100 100" xml:space="preserve"><g><path d="M56.435,14.149c-4.882-0.327-12.935-2.753-19.472-2.753c-9.225,0-18.198,0.52-27.335,12.701   c-1.255,1.674-0.978,2.69-0.821,3.861c-1.212,1.385-4.23,2.898-4.832,4.369c-0.737,1.803,0,2.251,0,2.251s-1.139,1.105-0.866,2.078   c1.542,5.491,20.037,0.291,29.433,3.981c2.078,1.385,6.764,7.191,13.444,9.188c3.765,1.126,8.77,1.045,9.553-0.49   c0.918-1.8-5.506-5.947-7.806-8.451c4.435,1.541,6.104,2.572,10.622,7.065c7.226,7.188,11.959,13.064,14.181,17.445   c0.449,0.887,3.052,2.676,3.052,4.161c0,1.45-4.68,3.491-6.313,6.537c-1.347,2.509-2.608,7.044-1.586,8.521   c0.976,1.409,2.597-2.251,5.021-2.424c2.424-0.174,7.057,1.779,8.484,1.73c2.382-0.08,6.506-0.812,8.408-0.621   c3.665,0.367,4.26,5.421,6.654,5.123c1.457-0.182,0.832-7.194-2.395-11.661s-8.078-5.689-9.508-7.874   c-0.746-2.313-0.271-6.134-0.737-8.513c-2.828-14.439-12.485-32.659-13.157-34.973c0.279-1.615,2.324-5.78,3.718-7.174   c3.046-3.045,6.76-4.68,5.274-6.017C73.242,6.625,62.143,13.276,56.435,14.149z"/><path d="M21.837,39.844c0,3.788,5.731,9.001,10.705,7.715c2.765-0.716-1.596-2.939-1.385-6.58   C28.918,40.235,25.085,39.844,21.837,39.844z"/></g><text x="0" y="115" fill="#000000" font-size="5px" font-weight="bold" font-family="'Helvetica Neue', Helvetica, Arial-Unicode, Arial, Sans-serif">Created by Christy Presler</text><text x="0" y="120" fill="#000000" font-size="5px" font-weight="bold" font-family="'Helvetica Neue', Helvetica, Arial-Unicode, Arial, Sans-serif">from the Noun Project</text></svg>