<svg xmlns="http://www.w3.org/2000/svg" xmlns:xlink="http://www.w3.org/1999/xlink" version="1.1" x="0px" y="0px" viewBox="0 0 100 125" enable-background="new 0 0 100 100" xml:space="preserve"><g><path fill="#000000" d="M92.265,38.032c-5.609-14.9-20.763-22.998-33.627-21.767c-19.624,1.877-31.548,9.617-31.548,9.617   c-5.981-1.604-7.031-1.01-11.026,1.642c-2.613,1.733-9.569,11.743-10.201,13.68c-1.173,3.599-1.018,2.739-0.313,6.962   c1.438,8.627,5.468,17.117,5.468,17.117c0.976,1.51,0.401,6.224,0.085,8.056c-0.437,2.52-2.465,7.352-2.388,8.21   c0,0,3.573,2.516,4.301,2.035c4.614-3.049,6.567-20.057,7.312-18.924c1.332,2.036,1.367,2.386,3.597,2.505   c4.223,0.351,3.05,0,4.223-2.111c1.299-2.342,5.041-5.748,5.041-5.748C38.534,59.12,38.7,78.316,38.7,81.942   c0,1.035,0.84,1.877,1.877,1.877c1.845,0,3.786,0.126,5.589-0.083c0.719-0.084,1.963-14.389,2.227-15.842   c0.696-3.835,1.683-7.885,6.728-6.594c3.712,0.949,11.374,2.111,11.374,2.111c1.407,2.346,1.938,9.397,2.23,12.824v5.706   c0,1.035,0.839,1.877,1.876,1.877h5.63c1.037,0,1.876-0.842,1.876-1.877c0.002-5.124,0.648-10.232,2.879-15.028   c1.543-3.316,3.865-6.105,5.201-9.544c1.623-4.18,1.771-12.607,3.413-13.427c1.173,5.001,2.425,11.334,1.126,16.989   c-0.198,0.851-3.56,9.111-1.245,8.459c3.753-1.054,5.396-12.547,5.515-17.828C95.088,47.372,93.96,42.542,92.265,38.032    M17.121,56.61c-2.074,0-3.753-1.681-3.753-3.753c0-2.075,1.679-3.753,3.753-3.753c2.07,0,3.753,1.678,3.753,3.753   C20.874,54.93,19.191,56.61,17.121,56.61 M30.646,57c-3.694,1.078-2.892-2.426-2.892-2.426c5.63-1.248,6.881-7.347,7.037-11.1   c0.155-3.753-0.782-7.975-4.223-7.975c-3.439,0-3.565,1.372-4.535,2.032c-2.189,1.485-4.108-0.117-3.362-1.254   c1.871-2.844,8.271-6.366,11.84-4.61c3.507,1.728,5.283,5.51,5.283,9.302C39.795,48.164,34.399,55.906,30.646,57"/></g><text x="0" y="115" fill="#000000" font-size="5px" font-weight="bold" font-family="'Helvetica Neue', Helvetica, Arial-Unicode, Arial, Sans-serif">Created by Vicons Design</text><text x="0" y="120" fill="#000000" font-size="5px" font-weight="bold" font-family="'Helvetica Neue', Helvetica, Arial-Unicode, Arial, Sans-serif">from the Noun Project</text></svg>