<svg xmlns="http://www.w3.org/2000/svg" xmlns:xlink="http://www.w3.org/1999/xlink" version="1.1" x="0px" y="0px" viewBox="0 0 100 125" enable-background="new 0 0 100 100" xml:space="preserve"><g display="none"><rect x="-1245.872" y="-933.875" display="inline" fill="#000000" width="1424.929" height="1317.875"/></g><g><path fill="none" d="M62.394,33.796c-1.879,0.323-3.779,0.494-5.681,0.494c-1.126,0-2.252-0.057-3.376-0.17l-3.471-0.461   l5.651,23.672L62.394,33.796z"/><path fill="none" d="M24.66,41.831l-11.271,7.112c0.123,0.268,0.258,0.533,0.42,0.789c1.28,2.028,3.465,3.139,5.698,3.139   c1.228,0,2.47-0.336,3.585-1.039c3.143-1.983,4.084-6.139,2.1-9.282C25.03,42.294,24.849,42.058,24.66,41.831z M23.269,46.994   c-0.228,1.007-0.834,1.865-1.707,2.415c-0.619,0.391-1.33,0.597-2.056,0.597c-0.627,0-1.229-0.148-1.765-0.422l5.623-3.548   C23.372,46.355,23.341,46.676,23.269,46.994z"/><path d="M19.506,50.006c0.726,0,1.437-0.206,2.056-0.597c0.873-0.551,1.479-1.409,1.707-2.415c0.072-0.318,0.104-0.639,0.095-0.957   l-5.623,3.548C18.277,49.858,18.879,50.006,19.506,50.006z"/><path d="M6.703,27.925l34.459,4.578L28.144,49.788v-5.98c0-3.639-2.961-6.6-6.6-6.6H19.32c-5.982,0-10.85,4.867-10.85,10.85v4.892   c0,17.717,13.874,31.947,31.585,32.396c1.782,0.045,3.613,0.139,5.383,0.229c8.403,0.426,17.094,0.87,24.192-3.598   c17.142-10.792,9.907-28.333,2.911-45.297c-0.629-1.525-1.24-3.007-1.822-4.46l22.578-4.313l-0.75-3.93l-23.291,4.45   c-0.085-0.23-0.176-0.464-0.259-0.693l-1.309-3.193l-2.675,0.29l-1.364,4.667l-1.395,0.266c-2.807,0.536-5.672,0.663-8.453,0.383   l-4.93-0.655l-0.811-3.399l-2.189,0.157l-1.947,2.585l-28.327-3.763l5.386-8.819l-3.414-2.084l-3.301,5.405l-2.679-5.27   l-3.566,1.813l4.333,8.524L7.23,23.96L6.703,27.925z M23.091,51.832c-1.115,0.704-2.357,1.039-3.585,1.039   c-2.233,0-4.418-1.111-5.698-3.139c-0.162-0.256-0.297-0.521-0.42-0.789l11.271-7.112c0.189,0.227,0.37,0.462,0.531,0.719   C27.175,45.693,26.234,49.849,23.091,51.832z M53.337,34.12c1.124,0.113,2.25,0.17,3.376,0.17c1.902,0,3.802-0.171,5.681-0.494   l-6.876,23.535l-5.651-23.672L53.337,34.12z"/></g><text x="0" y="115" fill="#000000" font-size="5px" font-weight="bold" font-family="'Helvetica Neue', Helvetica, Arial-Unicode, Arial, Sans-serif">Created by Oksana Latysheva</text><text x="0" y="120" fill="#000000" font-size="5px" font-weight="bold" font-family="'Helvetica Neue', Helvetica, Arial-Unicode, Arial, Sans-serif">from the Noun Project</text></svg>